<?xml version="1.0" encoding="UTF-8" standalone="no"?>
<!-- Created with Inkscape (http://www.inkscape.org/) -->

<svg
   width="123.77919mm"
   height="117.0285mm"
   viewBox="0 0 123.77919 117.0285"
   version="1.1"
   id="svg1"
   inkscape:version="1.3.2 (091e20e, 2023-11-25, custom)"
   sodipodi:docname="moae-logo.svg"
   xmlns:inkscape="http://www.inkscape.org/namespaces/inkscape"
   xmlns:sodipodi="http://sodipodi.sourceforge.net/DTD/sodipodi-0.dtd"
   xmlns:xlink="http://www.w3.org/1999/xlink"
   xmlns="http://www.w3.org/2000/svg"
   xmlns:svg="http://www.w3.org/2000/svg">
  <sodipodi:namedview
     id="namedview1"
     pagecolor="#ffffff"
     bordercolor="#000000"
     borderopacity="0.25"
     inkscape:showpageshadow="2"
     inkscape:pageopacity="0.0"
     inkscape:pagecheckerboard="0"
     inkscape:deskcolor="#d1d1d1"
     inkscape:document-units="mm"
     inkscape:zoom="1.524504"
     inkscape:cx="546.73521"
     inkscape:cy="187.602"
     inkscape:window-width="2558"
     inkscape:window-height="1360"
     inkscape:window-x="1273"
     inkscape:window-y="0"
     inkscape:window-maximized="0"
     inkscape:current-layer="layer1" />
  <defs
     id="defs1">
    <linearGradient
       id="linearGradient23"
       inkscape:collect="always">
      <stop
         style="stop-color:#03db73;stop-opacity:1;"
         offset="0"
         id="stop23" />
      <stop
         style="stop-color:#174853;stop-opacity:1;"
         offset="0.38256881"
         id="stop25" />
      <stop
         style="stop-color:#037573;stop-opacity:1;"
         offset="1"
         id="stop24" />
    </linearGradient>
    <linearGradient
       id="linearGradient19"
       inkscape:collect="always">
      <stop
         style="stop-color:#aaecda;stop-opacity:1;"
         offset="0"
         id="stop19" />
      <stop
         style="stop-color:#dfebae;stop-opacity:1;"
         offset="1"
         id="stop20" />
    </linearGradient>
    <linearGradient
       inkscape:collect="always"
       xlink:href="#linearGradient19"
       id="linearGradient20"
       x1="47.900951"
       y1="154.2619"
       x2="124.69575"
       y2="154.2619"
       gradientUnits="userSpaceOnUse" />
    <linearGradient
       inkscape:collect="always"
       xlink:href="#linearGradient23"
       id="linearGradient24"
       x1="76.595322"
       y1="188.76891"
       x2="154.5208"
       y2="188.76891"
       gradientUnits="userSpaceOnUse" />
  </defs>
  <g
     inkscape:label="Layer 1"
     inkscape:groupmode="layer"
     id="layer1"
     transform="translate(-43.115439,-86.869526)">
    <path
       id="path19-4-3"
       style="fill:#ffffff;fill-opacity:1;stroke-width:0.541948;stroke-linecap:round;stroke-linejoin:round;paint-order:markers fill stroke"
       d="m 105.00478,86.869778 c -17.695338,0.01801 -34.53665,7.609603 -46.268709,20.856632 -10.046577,11.30909 -15.60343,25.90615 -15.620632,41.03326 0.05874,22.11695 11.915563,42.52158 31.101786,53.52394 1.987989,-0.33993 3.965734,-0.70101 5.94231,-1.0648 -1.979112,0.36328 -3.959632,0.71937 -5.94231,1.0648 7.679592,2.97254 14.130643,2.7696 50.140805,-8.70539 6.09824,-2.00592 10.77538,-3.4609 14.81967,-4.70053 1.51397,-0.38045 2.9502,-0.82531 4.31963,-1.3258 12.78694,-3.86956 13.90537,-4.10539 15.18318,-8.28138 2.14737,-3.74078 3.86781,-7.68654 5.18559,-11.75747 0.0113,-0.006 0.0274,-0.0139 0.0387,-0.0207 0.47219,-1.41367 0.63016,-1.89668 0.9382,-3.19939 -0.004,0.002 -0.01,0.004 -0.014,0.007 0.63484,-2.4013 1.12359,-4.83613 1.46529,-7.29331 0.0217,-0.15525 0.0445,-0.31003 0.0649,-0.46546 0.15546,-1.1838 0.27787,-2.37172 0.36464,-3.5635 0.0135,-0.18431 0.0229,-0.36888 0.0347,-0.55338 0.0778,-1.2192 0.13066,-2.44097 0.1361,-3.66487 -8e-5,-0.93332 -0.0287,-1.86199 -0.0705,-2.78884 -0.0111,-0.25246 -0.0233,-0.50449 -0.0376,-0.75616 -0.0493,-0.86031 -0.11021,-1.71862 -0.19492,-2.57207 -0.0297,-0.30252 -0.0701,-0.60169 -0.10418,-0.90292 -0.0636,-0.55764 -0.13369,-1.11381 -0.21228,-1.66803 -0.0591,-0.42027 -0.11903,-0.83996 -0.1865,-1.25747 -0.0769,-0.47164 -0.16397,-0.94046 -0.25151,-1.40926 -0.14198,-0.76532 -0.29839,-1.52511 -0.46825,-2.28026 -0.0508,-0.22458 -0.10202,-0.44887 -0.15516,-0.6727 -0.43242,-1.82625 -0.94559,-3.61973 -1.53585,-5.3794 -0.0152,-0.0451 -0.0301,-0.0904 -0.0453,-0.13554 -0.62444,-1.84729 -1.33281,-3.65468 -2.12229,-5.41916 -0.0171,-0.0382 -0.0344,-0.0762 -0.0515,-0.11426 -0.77585,-1.72463 -1.62589,-3.40751 -2.55078,-5.04388 -0.0967,-0.1715 -0.19626,-0.34139 -0.29464,-0.51195 -0.46515,-0.80492 -0.94751,-1.59789 -1.44735,-2.37939 -0.16953,-0.26564 -0.33665,-0.53286 -0.51026,-0.79593 -0.25345,-0.38326 -0.51239,-0.76206 -0.77408,-1.13929 -0.25378,-0.36655 -0.51344,-0.72883 -0.7752,-1.08998 -0.26002,-0.35809 -0.51897,-0.71648 -0.78642,-1.06872 -0.42036,-0.55456 -0.85118,-1.10159 -1.29051,-1.64226 -0.20923,-0.25714 -0.42194,-0.51089 -0.63518,-0.76458 -0.40029,-0.47676 -0.80823,-0.94752 -1.2233,-1.41262 -0.1557,-0.17433 -0.30726,-0.35228 -0.4649,-0.52483 -0.5529,-0.60557 -1.12151,-1.1979 -1.69941,-1.78231 -0.19305,-0.19521 -0.38857,-0.38763 -0.58421,-0.58027 -0.47332,-0.46607 -0.95474,-0.92465 -1.44398,-1.37622 -0.16466,-0.15208 -0.32605,-0.30732 -0.49234,-0.45762 -0.59136,-0.53404 -1.19617,-1.05539 -1.80976,-1.56778 -0.26465,-0.2213 -0.53314,-0.43782 -0.80153,-0.65477 -0.40158,-0.32409 -0.80823,-0.64255 -1.21882,-0.95724 -0.30262,-0.232395 -0.60318,-0.46711 -0.91018,-0.693996 -0.56222,-0.414606 -1.13302,-0.81976 -1.71117,-1.216585 -0.42806,-0.294485 -0.86318,-0.578671 -1.29893,-0.862577 -0.21964,-0.142771 -0.44025,-0.284372 -0.66206,-0.424574 -1.69596,-1.074548 -3.44658,-2.068205 -5.24888,-2.977037 0.002,-4.64e-4 0.003,-0.0013 0.005,-0.0016 -0.10036,-0.94933 -0.14754,-2.00393 -2.96079,-2.033796 -0.39977,-0.0043 -0.85608,0.01227 -1.37566,0.05266 -0.005,-0.002 -0.01,-0.0036 -0.0151,-0.0057 -0.1035,-0.284733 -1.25884,-1.211171 -2.7233,-1.044624 -6.48785,-2.308856 -13.46995,-3.57639 -20.7502,-3.576365 z M 56.55776,110.91796 c -0.21833,0.36589 -0.420747,0.74574 -0.625095,1.12416 0.19972,-0.38179 0.409681,-0.75506 0.625095,-1.12416 z m 70.44461,79.38805 c -2.11976,0.62222 -4.24455,1.2201 -6.37193,1.80414 -2.17258,0.21557 -4.29557,0.32124 -6.37417,0.33439 4.0607,-0.32687 8.30558,-1.01667 12.7461,-2.13853 z m -31.02673,7.78509 c -2.344918,0.50008 -4.693889,0.98025 -7.045192,1.44849 2.353892,-0.47144 4.701811,-0.9551 7.045192,-1.44849 z m -7.327492,1.50394 c -1.789765,0.35544 -3.581212,0.70264 -5.374346,1.04126 1.794155,-0.34131 3.587706,-0.68428 5.374346,-1.04126 z" />
    <path
       id="path19-4"
       style="fill:#000000;fill-opacity:1;stroke-width:0.516855;stroke-linecap:round;stroke-linejoin:round;paint-order:markers fill stroke"
       d="m 104.99978,89.580646 c -16.876013,0.01717 -32.93756,7.25727 -44.126414,19.890954 -9.58141,10.78546 -14.880976,24.70666 -14.897381,39.13338 0.05603,21.09291 11.363861,40.55278 29.661743,51.04572 1.895942,-0.3242 3.782116,-0.66855 5.667174,-1.01549 -1.887476,0.34645 -3.776297,0.68606 -5.667174,1.01549 7.324019,2.83492 13.476377,2.64137 47.819242,-8.30232 5.81588,-1.91305 10.27646,-3.30066 14.1335,-4.48288 1.44387,-0.36285 2.81361,-0.7871 4.11963,-1.26442 12.19489,-3.6904 13.26154,-3.91531 14.48017,-7.89795 2.04796,-3.56758 3.68873,-7.33064 4.94551,-11.21308 0.0108,-0.006 0.0262,-0.0133 0.0369,-0.0198 0.45032,-1.34822 0.60098,-1.80886 0.89476,-3.05126 -0.004,0.002 -0.009,0.004 -0.0134,0.007 0.60544,-2.29011 1.07157,-4.61221 1.39744,-6.95563 0.0207,-0.14805 0.0424,-0.29567 0.0619,-0.4439 0.14827,-1.12898 0.265,-2.26191 0.34776,-3.3985 0.0129,-0.17578 0.0218,-0.3518 0.0331,-0.52777 0.0742,-1.16274 0.12461,-2.32794 0.1298,-3.49518 -8e-5,-0.89011 -0.0273,-1.77578 -0.0673,-2.65971 -0.0106,-0.24077 -0.0222,-0.48114 -0.0358,-0.72115 -0.047,-0.82048 -0.10511,-1.63904 -0.1859,-2.45298 -0.0283,-0.28852 -0.0669,-0.57384 -0.0994,-0.86111 -0.0607,-0.53183 -0.1275,-1.06225 -0.20245,-1.59081 -0.0564,-0.40081 -0.11352,-0.80106 -0.17787,-1.19924 -0.0733,-0.44981 -0.15638,-0.89692 -0.23986,-1.34401 -0.13541,-0.72989 -0.28457,-1.45449 -0.44657,-2.17468 -0.0484,-0.21418 -0.0973,-0.42808 -0.14798,-0.64155 -0.4124,-1.7417 -0.90181,-3.45214 -1.46474,-5.13033 -0.0145,-0.0431 -0.0287,-0.0862 -0.0432,-0.12927 -0.59553,-1.76176 -1.27111,-3.48546 -2.02403,-5.16824 -0.0162,-0.0364 -0.0328,-0.0727 -0.0492,-0.10898 -0.73992,-1.64477 -1.5506,-3.24974 -2.43267,-4.81034 -0.0922,-0.16356 -0.18718,-0.32558 -0.28099,-0.48825 -0.44361,-0.76764 -0.90363,-1.5239 -1.38033,-2.26922 -0.1617,-0.25334 -0.32108,-0.50819 -0.48665,-0.75908 -0.24171,-0.36551 -0.48867,-0.72677 -0.73824,-1.08653 -0.24202,-0.34958 -0.48966,-0.69509 -0.73931,-1.03952 -0.24798,-0.34151 -0.49493,-0.6833 -0.75,-1.01923 -0.40089,-0.52889 -0.81177,-1.05059 -1.23076,-1.56623 -0.19954,-0.24523 -0.4024,-0.48722 -0.60577,-0.72917 -0.38175,-0.45469 -0.7708,-0.90365 -1.16666,-1.34721 -0.14849,-0.16627 -0.29303,-0.33597 -0.44337,-0.50054 -0.5273,-0.57753 -1.06959,-1.14244 -1.62072,-1.69978 -0.18412,-0.18618 -0.37059,-0.36969 -0.55716,-0.55342 -0.45142,-0.44449 -0.91054,-0.88182 -1.37714,-1.31249 -0.15703,-0.14504 -0.31094,-0.29308 -0.46953,-0.43643 -0.56398,-0.50931 -1.1408,-1.00653 -1.72597,-1.49519 -0.2524,-0.21106 -0.50845,-0.41755 -0.76442,-0.62445 -0.38298,-0.30909 -0.77081,-0.6128 -1.16239,-0.91292 -0.28861,-0.22164 -0.57525,-0.44549 -0.86804,-0.66187 -0.53618,-0.39541 -1.08056,-0.7818 -1.63193,-1.160253 -0.40825,-0.28085 -0.82322,-0.551879 -1.23879,-0.822639 -0.20948,-0.13616 -0.41987,-0.271205 -0.63141,-0.404915 -1.61743,-1.024796 -3.28699,-1.972445 -5.00585,-2.839198 0.002,-4.42e-4 0.003,-0.0012 0.005,-0.0016 -0.0957,-0.905375 -0.14071,-1.911147 -2.8237,-1.939629 -0.38127,-0.004 -0.81645,0.01171 -1.31197,0.05022 -0.005,-0.002 -0.009,-0.0034 -0.0145,-0.0054 -0.0987,-0.271549 -1.20055,-1.155093 -2.5972,-0.996257 -6.18746,-2.201954 -12.84628,-3.410799 -19.78946,-3.410776 z M 58.795913,112.51538 c -0.208221,0.34894 -0.401266,0.71121 -0.596153,1.0721 0.190473,-0.36411 0.390713,-0.72009 0.596153,-1.0721 z m 67.182957,75.7123 c -2.02161,0.59341 -4.04802,1.16361 -6.0769,1.7206 -2.072,0.2056 -4.09669,0.30637 -6.07904,0.31891 3.87268,-0.31174 7.92103,-0.9696 12.15594,-2.03951 z m -29.590168,7.42463 c -2.236344,0.47693 -4.476554,0.93486 -6.718987,1.38142 2.244903,-0.44961 4.484111,-0.91088 6.718987,-1.38142 z m -6.988218,1.4343 c -1.706897,0.33899 -3.415397,0.67011 -5.125508,0.99305 1.711083,-0.3255 3.421589,-0.65259 5.125508,-0.99305 z" />
    <path
       d="m 130.05607,186.60837 c -59.781149,15.14915 -87.16321,-51.86046 -67.743594,-75.96551 -9.268945,10.43374 -14.395649,23.9009 -14.411524,37.85712 0.05425,20.40503 10.993226,39.23022 28.694373,49.38096 18.134601,-3.10096 35.718485,-7.35217 53.460745,-11.27257 z"
       style="fill:url(#linearGradient20);stroke-width:0.499999;stroke-linecap:round;stroke-linejoin:round;paint-order:markers fill stroke"
       id="path19"
       sodipodi:nodetypes="ccccc" />
    <path
       d="m 104.99979,91.400623 c -16.325644,0.01661 -31.863362,7.020576 -42.687314,19.242237 -19.419616,24.10505 3.256729,91.32334 63.037884,76.17419 13.81784,0.0104 21.43066,-5.13144 29.17044,-10.16788 4.91913,-8.56931 7.53035,-18.26847 7.57835,-28.14919 1e-4,-31.53515 -25.56421,-57.09946 -57.09936,-57.099357 z"
       style="fill:#fbfde3;fill-opacity:1;stroke-width:0.499999;stroke-linecap:round;stroke-linejoin:round;paint-order:markers fill stroke"
       id="path17"
       sodipodi:nodetypes="cccccc" />
    <path
       id="path10"
       style="fill:#1c1a24;fill-opacity:1;stroke-width:0.499999;stroke-linecap:round;stroke-linejoin:round;paint-order:markers fill stroke"
       d="m 116.45026,108.07247 c -16.29111,10.26695 -27.537664,24.39513 -37.158976,35.7694 1.739184,13.84339 3.568026,17.51937 16.322001,30.06689 4.671605,1.84635 25.669255,2.07464 45.126965,-2.16317 l 0.001,0.01 c 0.54807,-0.12388 1.13435,-0.26379 1.71514,-0.40153 0.46492,-0.10822 0.93453,-0.20531 1.39681,-0.31884 8.7e-4,-0.006 0.002,-0.011 0.003,-0.0165 5.78655,-1.42535 12.47543,-3.40075 15.48432,-5.23637 0.43564,-1.30426 0.5814,-1.74988 0.86559,-2.95176 -5.22324,2.89716 -10.48649,3.90607 -15.89206,4.84622 3.42903,-28.03247 -6.15892,-47.00603 -27.86341,-59.60412 z" />
    <path
       d="m 124.04876,103.77196 c -2.65332,1.33256 -5.17915,2.77579 -7.5985,4.30051 17.93188,13.60866 29.25239,32.80219 27.40297,62.96257 3.10686,-0.76299 6.15271,-1.63826 9.05372,-2.65514 3.41482,-26.19943 1.40097,-50.69521 -28.85819,-64.60794 z"
       style="fill:#552324;fill-opacity:1;stroke-width:0.499999;stroke-linecap:round;stroke-linejoin:round;paint-order:markers fill stroke"
       id="path9"
       sodipodi:nodetypes="ccccc" />
    <path
       d="m 134.21403,99.444576 c -3.58273,1.259014 -6.96041,2.717834 -10.16527,4.327384 26.82244,16.1303 30.50148,39.59419 28.85819,64.60794 2.23951,-0.78501 4.39586,-1.64863 6.43319,-2.59777 1.80228,-5.58471 2.73289,-11.41389 2.75901,-17.28215 -0.002,-20.12307 -10.59535,-38.75969 -27.88512,-49.055404 z"
       style="fill:#db2026;fill-opacity:1;stroke-width:0.499999;stroke-linecap:round;stroke-linejoin:round;paint-order:markers fill stroke"
       id="path7"
       sodipodi:nodetypes="cccccc" />
    <path
       id="path3"
       style="fill:#097e7d;fill-opacity:1;stroke-width:0.499999;stroke-linecap:round;stroke-linejoin:round;paint-order:markers fill stroke"
       d="m 127.93948,95.62052 c -0.37079,-0.0039 -0.79336,0.01141 -1.27589,0.04909 -21.68254,7.37982 -33.549223,16.93829 -56.303544,44.41228 0,32.41733 14.299166,35.41637 28.007593,36.01382 -13.823585,-2.44235 -23.334493,-5.29121 -23.334493,-34.47386 0.581605,-1.03172 1.660346,-2.53233 3.081983,-4.3155 l 3.65559,3.59203 c -0.676357,0.80326 -1.095867,1.30193 -2.479435,2.94349 -2.657671,11.13219 0.779491,27.36073 16.322001,30.06689 2.575429,0.8174 5.207235,0.95645 7.824845,1.26608 -6.006911,-16.91228 -13.004877,-26.66688 -20.030818,-36.2195 -0.18194,0.21615 -0.593792,0.70527 -0.778764,0.92501 l -3.707267,-3.56257 c 9.391421,-11.41996 32.181109,-33.44348 51.749809,-38.820892 -0.0926,-0.875848 -0.13611,-1.848817 -2.73161,-1.876371 z" />
    <path
       style="fill:#d9aa95;fill-opacity:1;stroke:none;stroke-width:1;stroke-linecap:round;stroke-linejoin:round;stroke-dasharray:none;stroke-opacity:1;paint-order:markers fill stroke"
       d="m 134.81961,107.45278 c 1.06636,-1.32807 2.8826,-2.4891 4.28466,-2.7724 3.52423,2.06864 8.44283,7.07968 10.7841,11.87389 -0.60329,0.8013 -2.56638,2.85765 -3.82616,3.12939 -5.35219,-7.44188 -7.29608,-9.37848 -11.2426,-12.23088 z"
       id="path11"
       sodipodi:nodetypes="ccccc" />
    <path
       style="fill:#e4d08a;fill-opacity:1;stroke:none;stroke-width:1;stroke-linecap:round;stroke-linejoin:round;stroke-dasharray:none;stroke-opacity:1;paint-order:markers fill stroke"
       d="m 126.66119,95.668863 c -21.09636,7.235997 -38.711096,23.716097 -55.303063,44.412807 1.613032,16.50017 1.114052,34.28507 27.009677,36.01426 -20.622338,2.26356 -29.10388,-11.89055 -29.380201,-37.14035 14.912713,-20.57217 32.804317,-35.97868 55.141727,-44.255259 1.36451,-0.162448 2.4448,0.709337 2.53186,0.968542 z"
       id="path12"
       sodipodi:nodetypes="cccccc" />
    <path
       style="fill:#e4d08a;fill-opacity:1;stroke:none;stroke-width:1;stroke-linecap:round;stroke-linejoin:round;stroke-dasharray:none;stroke-opacity:1;paint-order:markers fill stroke"
       d="m 81.771018,140.89891 -3.663679,-3.60037 c -1.231205,1.39332 -2.301593,2.8982 -3.07397,4.32339 -0.954415,23.08879 4.257915,31.60277 23.334435,34.474 l 5.022566,-1.05516 c -6.266337,-1.16455 -16.428182,-2.05429 -20.872927,-11.19013 -4.444745,-9.13583 -4.328557,-18.40368 -0.746425,-22.95173 z"
       id="path13"
       sodipodi:nodetypes="ccccczc" />
    <path
       style="fill:url(#linearGradient24);fill-opacity:1;stroke:none;stroke-width:1;stroke-linecap:round;stroke-linejoin:round;stroke-dasharray:none;stroke-opacity:1;paint-order:markers fill stroke"
       d="m 154.5208,176.64917 c -25.31641,10.37102 -51.45711,16.62053 -77.925476,21.23177 7.085171,2.74247 13.03674,2.55525 46.259606,-8.03154 28.92218,-9.51352 30.05741,-7.94362 31.66587,-13.20023 z"
       id="path21"
       sodipodi:nodetypes="cccc" />
    <ellipse
       style="fill:#f9f9f9;fill-opacity:1;stroke:none;stroke-width:1;stroke-linecap:round;stroke-linejoin:round;stroke-dasharray:none;stroke-opacity:1;paint-order:markers fill stroke"
       id="path22"
       cx="108.91489"
       cy="133.71989"
       rx="2.0248966"
       ry="2.1629703" />
    <ellipse
       style="fill:#f9f9f9;fill-opacity:1;stroke:none;stroke-width:0.484848;stroke-linecap:round;stroke-linejoin:round;stroke-dasharray:none;stroke-opacity:1;paint-order:markers fill stroke"
       id="path22-2"
       cx="119.84498"
       cy="120.73237"
       rx="0.98176801"
       ry="1.0487128" />
    <ellipse
       style="fill:#f9f9f9;fill-opacity:1;stroke:none;stroke-width:0.484848;stroke-linecap:round;stroke-linejoin:round;stroke-dasharray:none;stroke-opacity:1;paint-order:markers fill stroke"
       id="path22-2-0"
       cx="124.69575"
       cy="141.62193"
       rx="0.98176801"
       ry="1.0487128" />
    <ellipse
       style="fill:#f9f9f9;fill-opacity:1;stroke:none;stroke-width:0.484848;stroke-linecap:round;stroke-linejoin:round;stroke-dasharray:none;stroke-opacity:1;paint-order:markers fill stroke"
       id="path22-2-0-0"
       cx="97.158966"
       cy="138.95558"
       rx="0.98176801"
       ry="1.0487128" />
    <ellipse
       style="fill:#f9f9f9;fill-opacity:1;stroke:none;stroke-width:1.03883;stroke-linecap:round;stroke-linejoin:round;stroke-dasharray:none;stroke-opacity:1;paint-order:markers fill stroke"
       id="path22-2-8"
       cx="115.55806"
       cy="155.46016"
       rx="2.1035278"
       ry="2.2469633" />
    <path
       style="fill:#58242a;fill-opacity:1;stroke:none;stroke-width:1;stroke-linecap:round;stroke-linejoin:round;stroke-dasharray:none;stroke-opacity:1;paint-order:markers fill stroke"
       d="m 99.272726,123.83058 c -3.408024,3.00547 -9.807646,10.94276 -12.974375,15.125 5.639444,7.78044 10.110816,16.85873 14.753299,25.7469 -8.674598,-21.7351 -11.450199,-28.19811 -1.778924,-40.8719 z"
       id="path23"
       sodipodi:nodetypes="cccc" />
    <ellipse
       style="fill:#f9f9f9;fill-opacity:1;stroke:none;stroke-width:0.185286;stroke-linecap:round;stroke-linejoin:round;stroke-dasharray:none;stroke-opacity:1;paint-order:markers fill stroke"
       id="path22-2-0-3"
       cx="137.33128"
       cy="162.83054"
       rx="0.37518644"
       ry="0.40076968" />
  </g>
</svg>
