<?xml version="1.0" encoding="UTF-8" standalone="no"?>
<!-- Created with Inkscape (http://www.inkscape.org/) -->

<svg
   width="103.99992mm"
   height="88.828461mm"
   viewBox="0 0 103.99991 88.828462"
   version="1.1"
   id="svg1"
   inkscape:version="1.3.2 (091e20e, 2023-11-25, custom)"
   sodipodi:docname="workflows-logo.svg"
   xmlns:inkscape="http://www.inkscape.org/namespaces/inkscape"
   xmlns:sodipodi="http://sodipodi.sourceforge.net/DTD/sodipodi-0.dtd"
   xmlns="http://www.w3.org/2000/svg"
   xmlns:svg="http://www.w3.org/2000/svg">
  <sodipodi:namedview
     id="namedview1"
     pagecolor="#ffffff"
     bordercolor="#000000"
     borderopacity="0.25"
     inkscape:showpageshadow="2"
     inkscape:pageopacity="0.0"
     inkscape:pagecheckerboard="0"
     inkscape:deskcolor="#d1d1d1"
     inkscape:document-units="mm"
     showgrid="true"
     inkscape:zoom="1.4778115"
     inkscape:cx="492.95867"
     inkscape:cy="288.94077"
     inkscape:window-width="2558"
     inkscape:window-height="1360"
     inkscape:window-x="1273"
     inkscape:window-y="0"
     inkscape:window-maximized="0"
     inkscape:current-layer="layer1">
    <inkscape:grid
       id="grid1"
       units="mm"
       originx="-125.1719"
       originy="-10.171917"
       spacingx="0.99999998"
       spacingy="1"
       empcolor="#0099e5"
       empopacity="0.30196078"
       color="#0099e5"
       opacity="0.14901961"
       empspacing="5"
       dotted="false"
       gridanglex="30"
       gridanglez="30"
       visible="true" />
  </sodipodi:namedview>
  <defs
     id="defs1" />
  <g
     inkscape:label="Layer 1"
     inkscape:groupmode="layer"
     id="layer1"
     transform="translate(-125.17191,-10.171917)">
    <g
       id="g71">
      <path
         id="path1"
         style="color:#000000;fill:#ffdb6e;stroke:#ffff00;stroke-linecap:round;stroke-linejoin:round;stroke-opacity:0;-inkscape-stroke:none;paint-order:markers fill stroke"
         d="m 134.67188,10.671917 c -4.92317,0 -8.99997,4.076796 -8.99997,8.999968 0,4.923172 4.0768,8.999967 8.99997,8.999967 1.28408,0 2.50936,-0.279333 3.62097,-0.776697 l 15.33188,12.776482 h -18.95285 a 3.999995,3.999995 0 0 0 -3.99975,4.000272 3.999995,3.999995 0 0 0 3.99975,3.999756 h 59.99996 a 4.000395,4.000395 0 0 0 2.82825,-1.171505 l 19.30735,-19.307348 c 0.90234,0.308766 1.86538,0.47904 2.86442,0.47904 4.92316,0 8.99997,-4.076805 8.99997,-8.999967 0,-4.923162 -4.07681,-8.999968 -8.99997,-8.999968 -4.92316,0 -8.99997,4.076806 -8.99997,8.999968 0,0.999046 0.17028,1.962079 0.47904,2.864424 L 193.01561,40.671637 H 166.11854 L 143.42018,21.756512 c 0.1627,-0.670591 0.25167,-1.368241 0.25167,-2.084627 0,-4.923172 -4.0768,-8.999968 -8.99997,-8.999968 z" />
      <path
         id="path1-0"
         style="color:#000000;fill:#bcd35f;stroke:#ffff00;stroke-linecap:round;stroke-linejoin:round;stroke-opacity:0;-inkscape-stroke:none;paint-order:markers fill stroke"
         d="m 134.67188,50.67206 a 3.999995,3.999995 0 0 0 -3.99975,3.999756 3.999995,3.999995 0 0 0 3.99975,4.000272 h 58.34373 l 8.82788,8.827885 a 4.000395,4.000395 0 0 0 2.82825,1.172022 h 6.9572 c 1.48792,2.948417 4.5516,4.999695 8.04292,4.999695 4.92318,0 8.99997,-4.076796 8.99997,-8.999968 0,-4.923172 -4.07679,-8.999967 -8.99997,-8.999967 -3.49137,0 -6.55502,2.051727 -8.04292,5.000211 h -5.30097 l -8.82788,-8.828401 a 4.000395,4.000395 0 0 0 -2.82825,-1.171505 z" />
      <path
         style="color:#000000;fill:#c83737;stroke:#ffff00;stroke-linecap:round;stroke-linejoin:round;stroke-opacity:0;-inkscape-stroke:none;paint-order:markers fill stroke"
         d="m 134.67187,60.671873 a 3.999995,3.999995 0 0 0 -4,4 3.999995,3.999995 0 0 0 4,4 h 48.34375 l 13.82813,13.828125 a 4.000395,4.000395 0 0 0 2.82812,1.171875 h 20 a 3.999995,3.999995 0 0 0 4,-4 3.999995,3.999995 0 0 0 -4,-4 H 201.32812 L 187.5,61.843748 a 4.000395,4.000395 0 0 0 -2.82813,-1.171875 z"
         id="path1-6" />
      <g
         id="path2"
         style="stroke:#ffff00;stroke-opacity:0"
         transform="translate(119.67187,-0.32812676)">
        <path
           style="color:#000000;fill:#d4aa00;stroke:#ffff00;stroke-linecap:round;stroke-linejoin:round;stroke-opacity:0;-inkscape-stroke:none;paint-order:markers fill stroke"
           d="M 44.999999,44.999999 15,19.999999"
           id="path4" />
      </g>
      <g
         id="path3"
         style="stroke:#ffff00;stroke-opacity:0"
         transform="translate(119.67187,-0.32812676)">
        <path
           style="color:#000000;fill:#ffdb6e;stroke:#ffff00;stroke-linecap:round;stroke-linejoin:round;stroke-opacity:0;-inkscape-stroke:none;paint-order:markers fill stroke"
           d="m 20,19.999998 a 5,5 0 0 1 -5,5 5,5 0 0 1 -5,-5 5,5 0 0 1 5,-5 5,5 0 0 1 5,5 z"
           id="path6" />
      </g>
      <g
         id="path3-8-1"
         style="stroke:#ffff00;stroke-opacity:0"
         transform="translate(119.67187,-0.32812676)">
        <path
           style="color:#000000;fill:#ffdb6e;stroke:#ffff00;stroke-linecap:round;stroke-linejoin:round;stroke-opacity:0;-inkscape-stroke:none;paint-order:markers fill stroke"
           d="m 105,20 a 5,5 0 0 1 -5,5 5,5 0 0 1 -5,-5 5,5 0 0 1 5,-5 5,5 0 0 1 5,5 z"
           id="path10" />
      </g>
      <path
         id="path5"
         style="color:#000000;fill:#006680;stroke-linecap:round;stroke-linejoin:round;-inkscape-stroke:none;paint-order:markers fill stroke"
         d="m 149.25032,70.898732 c -1.07417,4.93e-4 -2.10415,0.427656 -2.86339,1.187525 l -9.10952,9.109521 c -0.72922,-0.193226 -1.49248,-0.297139 -2.27738,-0.297139 -4.9502,0 -9.05061,4.100411 -9.05061,9.05061 0,4.950199 4.10041,9.050611 9.05061,9.050611 4.95019,0 9.05061,-4.100412 9.05061,-9.050611 0,-1.197774 -0.24183,-2.344974 -0.67593,-3.397208 l 7.55303,-7.551994 h 26.14465 l 18.81436,18.812805 c 0.75924,0.759869 1.78922,1.187027 2.86339,1.187524 h 19.99981 c 2.23747,5.03e-4 4.05143,-1.813449 4.05092,-4.050915 5.1e-4,-2.237464 -1.81345,-4.051419 -4.05092,-4.050916 H 200.42808 L 181.6132,72.086257 c -0.75911,-0.759742 -1.78888,-1.186894 -2.86287,-1.187525 z" />
    </g>
    <g
       id="path7"
       transform="translate(-49.32244,-3.0000932)" />
  </g>
</svg>
